<?xml version="1.0" encoding="UTF-8" standalone="no"?>
<svg width="23px" height="23px" viewBox="0 0 23 23" version="1.1" xmlns="http://www.w3.org/2000/svg" xmlns:xlink="http://www.w3.org/1999/xlink">
    <!-- Generator: Sketch 43.2 (39069) - http://www.bohemiancoding.com/sketch -->
    <title>Playlist_icon</title>
    <desc>Created with Sketch.</desc>
    <defs></defs>
    <g id="Page-1" stroke="none" stroke-width="1" fill="none" fill-rule="evenodd">
        <g id="Mobile_with_browser" transform="translate(-280.000000, -87.000000)" fill="#50009F">
            <g id="Header_with_logo" transform="translate(0.000000, 71.000000)">
                <g id="Playlist_icon" transform="translate(280.000000, 16.000000)">
                    <path d="M0,8.6 C0,9.4836556 0.717620981,10.2 1.60395727,10.2 L17.5960427,10.2 C18.4818839,10.2 19.2,9.48981628 19.2,8.6 L19.2,8.6 C19.2,7.7163444 18.482379,7 17.5960427,7 L1.60395727,7 C0.718116131,7 0,7.71018372 0,8.6 L0,8.6 Z" id="Fill-1"></path>
                    <path d="M0,2.1992 C0,3.08329743 0.717620981,3.8 1.60395727,3.8 L17.5960427,3.8 C18.4818839,3.8 19.2,3.08946119 19.2,2.1992 L19.2,2.1992 C19.2,1.31510257 18.482379,0.5984 17.5960427,0.5984 L1.60395727,0.5984 C0.718116131,0.5984 0,1.30893881 0,2.1992 L0,2.1992 Z" id="Fill-2"></path>
                    <path d="M0,15.6008 C0,16.4848974 0.724858093,17.2016 1.59524822,17.2016 L11.2047518,17.2016 C12.085783,17.2016 12.8,16.4910612 12.8,15.6008 L12.8,15.6008 C12.8,14.7167026 12.0751419,14 11.2047518,14 L1.59524822,14 C0.714216957,14 0,14.7105388 0,15.6008 L0,15.6008 Z" id="Fill-3"></path>
                    <path d="M15.99984,20.9992109 C15.99984,22.1042162 16.7669136,22.5397558 17.7160407,21.9702796 L22.2836393,19.2297204 C23.2314708,18.6610215 23.2327664,17.7397558 22.2836393,17.1702796 L17.7160407,14.4297204 C16.7682092,13.8610215 15.99984,14.2859375 15.99984,15.4007891 L15.99984,20.9992109 Z" id="Fill-4"></path>
                </g>
            </g>
        </g>
    </g>
</svg>