<?xml version="1.0" encoding="UTF-8" standalone="no"?>
<svg width="24px" height="24px" viewBox="0 0 24 24" version="1.1" xmlns="http://www.w3.org/2000/svg" xmlns:xlink="http://www.w3.org/1999/xlink">
    <!-- Generator: Sketch 44.1 (41455) - http://www.bohemiancoding.com/sketch -->
    <title>Page 1</title>
    <desc>Created with Sketch.</desc>
    <defs></defs>
    <g id="Page-1" stroke="none" stroke-width="1" fill="none" fill-rule="evenodd">
        <g id="Mobile_Max25_Playlist" transform="translate(-277.000000, -16.000000)" fill="#50009F">
            <path d="M279.666667,16 C278.186667,16 277,17.2 277,18.6666667 L277,22.9968408 C277,23.5508703 277.440346,24 277.992968,24 L278.673698,24 C279.2221,24 279.666667,23.545283 279.666667,22.9968408 L279.666667,18.6666667 L298.333333,18.6666667 L298.333333,37.3333333 L279.666667,37.3333333 L279.666667,33.0031592 C279.666667,32.4491297 279.226321,32 278.673698,32 L277.992968,32 C277.444567,32 277,32.454717 277,33.0031592 L277,37.3333333 C277,38.8 278.186667,40 279.666667,40 L298.333333,40 C299.8,40 301,38.8 301,37.3333333 L301,18.6666667 C301,17.2 299.8,16 298.333333,16 L279.666667,16 Z M287.166104,32.0711338 C286.772451,32.4663117 286.763777,33.0971104 287.153376,33.4867093 L287.633291,33.9666241 C288.019914,34.3532469 288.654881,34.3451195 289.046783,33.9532166 L295,28 L289.046783,22.0467834 C288.652756,21.6527558 288.02289,21.6437771 287.633291,22.0333759 L287.153376,22.5132907 C286.766753,22.8999136 286.770794,23.5320247 287.166104,23.9288662 L289.893333,26.6666667 L277.990309,26.6666667 C277.443377,26.6666667 277,27.1070124 277,27.6596349 L277,28.3403651 C277,28.8887663 277.443818,29.3333333 277.990309,29.3333333 L289.893333,29.3333333 L287.166104,32.0711338 Z" id="Page-1"></path>
        </g>
    </g>
</svg>