<?xml version="1.0" encoding="UTF-8" standalone="no"?>
<svg width="24px" height="24px" viewBox="0 0 24 24" version="1.1" xmlns="http://www.w3.org/2000/svg" xmlns:xlink="http://www.w3.org/1999/xlink">
    <!-- Generator: Sketch 43.2 (39069) - http://www.bohemiancoding.com/sketch -->
    <title>Play_random</title>
    <desc>Created with Sketch.</desc>
    <defs></defs>
    <g id="Page-1" stroke="none" stroke-width="1" fill="none" fill-rule="evenodd">
        <g id="Desktop_Remixmonsta" transform="translate(-1249.000000, -932.000000)" fill="#FFFFFF">
            <g id="Music_Player" transform="translate(-1.000000, 901.000000)">
                <path d="M1266.74514,31 C1266.19554,31 1266.06579,31.3159484 1266.45937,31.7097168 L1268.8085,34.06 L1250.70299,52.1813951 C1250.31474,52.5699853 1250.31208,53.1970755 1250.70426,53.5892644 L1251.41074,54.2957356 C1251.79969,54.6846901 1252.42604,54.689211 1252.8186,54.2969557 L1270.94,36.19 L1273.29028,38.5402832 C1273.68225,38.932249 1274,38.8064442 1274,38.2548572 L1274,31.9951428 C1274,31.4455406 1273.55644,31 1273.00486,31 L1266.74514,31 Z M1252.8181,31.7020179 C1252.42979,31.3143041 1251.80292,31.3120755 1251.41074,31.7042644 L1250.70426,32.4107356 C1250.31531,32.7996901 1250.31355,33.4286101 1250.70175,33.8168821 L1257.7535,40.87 L1259.8835,38.7565 L1252.8181,31.7020179 Z M1264.13,47.2315 L1268.8235,51.925 L1266.46285,54.2868042 C1266.06915,54.6806914 1266.19356,55 1266.74514,55 L1273.00486,55 C1273.55446,55 1274,54.5564442 1274,54.0048572 L1274,47.7451428 C1274,47.1955406 1273.68405,47.0661032 1273.29028,47.4600647 L1270.94,49.8115 L1266.2435,45.115 L1264.13,47.2315 Z" id="Play_random"></path>
            </g>
        </g>
    </g>
</svg>