<?xml version="1.0" encoding="UTF-8" standalone="no"?>
<svg width="32px" height="32px" viewBox="0 0 32 32" version="1.1" xmlns="http://www.w3.org/2000/svg" xmlns:xlink="http://www.w3.org/1999/xlink">
    <!-- Generator: Sketch 46.2 (44496) - http://www.bohemiancoding.com/sketch -->
    <title>Reload_tracks</title>
    <desc>Created with Sketch.</desc>
    <defs></defs>
    <g id="Page-1" stroke="none" stroke-width="1" fill="none" fill-rule="evenodd">
        <g id="Desktop_Remixmonsta_Refresh" transform="translate(-479.000000, -233.000000)">
            <g id="Reload_tracks" transform="translate(479.000000, 233.000000)">
                <rect id="Rectangle-5" stroke="#D325E5" x="0.5" y="0.5" width="31" height="31" rx="15.5"></rect>
                <path d="M21.641,10.35 C20.191,8.9 18.201,8 15.991,8 C11.571,8 8,11.58 8,16 C8,20.42 11.571,24 15.991,24 C19.721,24 22.83,21.45 23.721,18 L21.641,18 C20.821,20.33 18.6,22 15.991,22 C12.681,22 9.991,19.31 9.991,16 C9.991,12.69 12.681,10 15.991,10 C17.651,10 19.131,10.69 20.211,11.78 L19.4156651,12.6270265 L19.4156651,12.6270265 C19.0376194,13.0296428 19.0575377,13.6624944 19.460154,14.0405401 C19.6143827,14.1853567 19.8105666,14.2775284 20.0204908,14.3037992 L23.4850237,14.7373651 L23.4850237,14.7373651 C24.0330339,14.8059454 24.5328792,14.4172906 24.6014595,13.8692804 C24.6111023,13.7922268 24.6117371,13.7143122 24.6033509,13.6371117 L24.216401,10.0749711 L24.216401,10.0749711 C24.156758,9.52591627 23.6633109,9.12916962 23.1142561,9.18881261 C22.8876761,9.21342565 22.6763013,9.31469865 22.5151425,9.47585746 L21.641,10.35 Z" id="Fill-1" fill="#D325E5"></path>
            </g>
        </g>
    </g>
</svg>