<?xml version="1.0" encoding="UTF-8" standalone="no"?>
<svg width="14px" height="14px" viewBox="0 0 14 14" version="1.1" xmlns="http://www.w3.org/2000/svg" xmlns:xlink="http://www.w3.org/1999/xlink">
    <!-- Generator: Sketch 43.2 (39069) - http://www.bohemiancoding.com/sketch -->
    <title>Page 1</title>
    <desc>Created with Sketch.</desc>
    <defs></defs>
    <g id="Page-1" stroke="none" stroke-width="1" fill="none" fill-rule="evenodd">
        <g id="Desktop_Remixmonsta" transform="translate(-1310.000000, -641.000000)" fill="#9e9e9e">
            <g id="Playlist_tracks" transform="translate(1025.000000, 230.000000)">
                <path d="M298.295,411.705 C297.905639,411.315639 297.273441,411.316559 296.882023,411.707977 L292,416.59 L287.117977,411.707977 C286.726972,411.316972 286.097075,411.312925 285.705,411.705 L285.705,411.705 C285.315639,412.094361 285.316559,412.726559 285.707977,413.117977 L290.59,418 L285.707977,422.882023 C285.316972,423.273028 285.312925,423.902925 285.705,424.295 L285.705,424.295 C286.094361,424.684361 286.726559,424.683441 287.117977,424.292023 L292,419.41 L296.882023,424.292023 C297.273028,424.683028 297.902925,424.687075 298.295,424.295 L298.295,424.295 C298.684361,423.905639 298.683441,423.273441 298.292023,422.882023 L293.41,418 L298.292023,413.117977 C298.683028,412.726972 298.687075,412.097075 298.295,411.705 L298.295,411.705 Z" id="Page-1"></path>
            </g>
        </g>
    </g>
</svg>