<?xml version="1.0" encoding="UTF-8" standalone="no"?>
<svg width="24px" height="24px" viewBox="0 0 24 24" version="1.1" xmlns="http://www.w3.org/2000/svg" xmlns:xlink="http://www.w3.org/1999/xlink">
    <!-- Generator: Sketch 43.2 (39069) - http://www.bohemiancoding.com/sketch -->
    <title>Search_icon</title>
    <desc>Created with Sketch.</desc>
    <defs></defs>
    <g id="Page-1" stroke="none" stroke-width="1" fill="none" fill-rule="evenodd">
        <g id="Mobile_with_browser" transform="translate(-233.000000, -87.000000)" fill="#50009F">
            <g id="Header_with_logo" transform="translate(0.000000, 71.000000)">
                <path d="M235.693692,24.7544983 C235.693692,21.400852 238.400852,18.6936918 241.754498,18.6936918 C245.108145,18.6936918 247.815305,21.400852 247.815305,24.7544983 C247.815305,28.1081446 245.108145,30.8153049 241.754498,30.8153049 C238.400852,30.8153049 235.693692,28.1081446 235.693692,24.7544983 Z M249.835574,30.8153049 L248.809277,29.8752064 C249.863857,28.4273471 250.508997,26.6683663 250.508997,24.7544983 C250.508997,19.9193216 246.589675,16 241.754498,16 C236.919322,16 233,19.9193216 233,24.7544983 C233,29.5896751 236.919322,33.5089966 241.754498,33.5089966 C243.687222,33.5089966 245.459671,32.8530827 246.915612,31.7809934 L247.815305,32.8355737 L253.841582,38.8497981 C254.232573,39.2400075 254.863097,39.2427722 255.251416,38.8544533 L255.854453,38.2514157 C256.242092,37.8637773 256.241193,37.2337609 255.849798,36.8415818 L249.835574,30.8153049 Z" id="Search_icon"></path>
            </g>
        </g>
    </g>
</svg>