<?xml version="1.0" encoding="UTF-8" standalone="no"?>
<svg width="55px" height="42px" viewBox="0 0 55 42" version="1.1" xmlns="http://www.w3.org/2000/svg" xmlns:xlink="http://www.w3.org/1999/xlink">
    <!-- Generator: Sketch 44.1 (41455) - http://www.bohemiancoding.com/sketch -->
    <title>Soundcloud_logo</title>
    <desc>Created with Sketch.</desc>
    <defs></defs>
    <g id="Page-1" stroke="none" stroke-width="1" fill="none" fill-rule="evenodd">
        <g id="Desktop_Remixmonsta_Search" transform="translate(-1298.000000, -661.000000)" fill="#FFFFFF">
            <g id="Music_Player" transform="translate(0.000000, 648.000000)">
                <g id="Soundcloud_logo" transform="translate(1298.000000, 10.000000)">
                    <text id="powered-by" font-family="OpenSans, Open Sans" font-size="10" font-weight="normal" fill-opacity="0.6">
                        <tspan x="0" y="11">powered by</tspan>
                    </text>
                    <path d="M43.0637859,44.2229325 L42.6931947,44.2229325 L42.6931947,41.9581649 L43.09156,41.9581649 C43.8866687,41.9581649 44.2144839,42.3334316 44.2144839,43.0905487 C44.2144839,43.7678643 43.8540291,44.2229325 43.0637859,44.2229325 L43.0637859,44.2229325 Z M43.1177122,41.2381555 L41.940862,41.2381555 L41.940862,44.9421439 L43.0637859,44.9421439 C44.0322292,44.9421439 44.9885086,44.3917128 44.9885086,43.0905487 C44.9885086,41.7357181 44.1933999,41.2381555 43.1177122,41.2381555 L43.1177122,41.2381555 Z M40.2468466,43.3181826 C40.2468466,43.9105095 39.9518738,44.2756015 39.4736327,44.2756015 C38.9941752,44.2756015 38.7042707,43.8999358 38.7042707,43.3072099 L38.7042707,41.2381555 L37.9519381,41.2381555 L37.9519381,43.3181826 C37.9519381,44.3967004 38.5645894,45 39.4736327,45 C40.4303176,45 40.9999901,44.3807401 40.9999901,43.3072099 L40.9999901,41.2381555 L40.2468466,41.2381555 L40.2468466,43.3181826 Z M35.5757347,44.2646288 C34.9679488,44.2646288 34.7153467,43.751505 34.7153467,43.0905487 C34.7153467,42.428994 34.9679488,41.9160696 35.5757347,41.9160696 C36.1825068,41.9160696 36.4355144,42.428994 36.4355144,43.0905487 C36.4355144,43.751505 36.1825068,44.2646288 35.5757347,44.2646288 L35.5757347,44.2646288 Z M35.5757347,41.1804989 C34.5482968,41.1804989 33.9413219,41.963352 33.9413219,43.0905487 C33.9413219,44.2179449 34.5482968,45 35.5757347,45 C36.6025643,45 37.2099447,44.2179449 37.2099447,43.0905487 C37.2099447,41.963352 36.6025643,41.1804989 35.5757347,41.1804989 L35.5757347,41.1804989 Z M32.0835002,41.2381555 L31.3311676,41.2381555 L31.3311676,44.9421439 L33.5928283,44.9421439 L33.5928283,44.2115608 L32.0835002,44.2115608 L32.0835002,41.2381555 Z M29.2919022,41.9160696 C29.630462,41.9160696 29.8459644,42.064301 29.980172,42.3178703 L30.6789838,42.0006592 C30.4421946,41.519057 30.0122034,41.1804989 29.3022414,41.1804989 C28.3194043,41.1804989 27.6309317,41.963352 27.6309317,43.0905487 C27.6309317,44.2596412 28.2918329,45 29.2756837,45 C29.9586825,45 30.4101632,44.6877765 30.6682391,44.1640789 L30.0340983,43.7936003 C29.8352197,44.1219836 29.635733,44.2646288 29.2975786,44.2646288 C28.7329744,44.2646288 28.4045511,43.7564925 28.4045511,43.0905487 C28.4045511,42.402859 28.7281088,41.9160696 29.2919022,41.9160696 L29.2919022,41.9160696 Z M25.0390231,44.2229325 L24.6686346,44.2229325 L24.6686346,41.9581649 L25.0665945,41.9581649 C25.8625142,41.9581649 26.190532,42.3334316 26.190532,43.0905487 C26.190532,43.7678643 25.8296718,44.2229325 25.0390231,44.2229325 L25.0390231,44.2229325 Z M25.0933549,41.2381555 L23.9160993,41.2381555 L23.9160993,44.9421439 L25.0390231,44.9421439 C26.007061,44.9421439 26.9641513,44.3917128 26.9641513,43.0905487 C26.9641513,41.7357181 26.1686371,41.2381555 25.0933549,41.2381555 L25.0933549,41.2381555 Z M22.2066763,42.8050587 C22.2066763,43.0111462 22.2172182,43.4763892 22.2172182,43.6142463 C22.1687657,43.5188835 22.045911,43.3337439 21.9544796,43.1958868 L20.6203106,41.2381555 L19.9004149,41.2381555 L19.9004149,44.9421439 L20.6424082,44.9421439 L20.6424082,43.312397 C20.6424082,43.10611 20.6316635,42.6408671 20.6316635,42.5034089 C20.6797106,42.5979737 20.8037817,42.7831133 20.8948076,42.921569 L22.2766183,44.9421439 L22.9486696,44.9421439 L22.9486696,41.2381555 L22.2066763,41.2381555 L22.2066763,42.8050587 Z M18.207413,43.3181826 C18.207413,43.9105095 17.9110211,44.2756015 17.4331855,44.2756015 C16.9547417,44.2756015 16.6646344,43.8999358 16.6646344,43.3072099 L16.6646344,41.2381555 L15.9114909,41.2381555 L15.9114909,43.3181826 C15.9114909,44.3967004 16.5245477,45 17.4331855,45 C18.3898704,45 18.9599484,44.3807401 18.9599484,43.3072099 L18.9599484,41.2381555 L18.207413,41.2381555 L18.207413,43.3181826 Z M13.5352875,44.2646288 C12.9281098,44.2646288 12.6751022,43.751505 12.6751022,43.0905487 C12.6751022,42.428994 12.9281098,41.9160696 13.5352875,41.9160696 C14.1434788,41.9160696 14.3956754,42.428994 14.3956754,43.0905487 C14.3956754,43.751505 14.1434788,44.2646288 13.5352875,44.2646288 L13.5352875,44.2646288 Z M13.5352875,41.1804989 C12.5088633,41.1804989 11.9018884,41.963352 11.9018884,43.0905487 C11.9018884,44.2179449 12.5088633,45 13.5352875,45 C14.5619144,45 15.1699029,44.2179449 15.1699029,43.0905487 C15.1699029,41.963352 14.5619144,41.1804989 13.5352875,41.1804989 L13.5352875,41.1804989 Z M10.0724489,42.6779748 C9.47621873,42.5395191 9.31464258,42.4659022 9.31464258,42.2332807 C9.31464258,42.0692886 9.44905285,41.8997103 9.85208095,41.8997103 C10.19652,41.8997103 10.4653405,42.0373679 10.7071979,42.2809621 L11.2503127,41.7622521 C10.8955345,41.3975591 10.4653405,41.1804989 9.87965229,41.1804989 C9.13725345,41.1804989 8.53534679,41.5930729 8.53534679,42.2652013 C8.53534679,42.9951859 9.01926434,43.2122461 9.71260242,43.3704526 C10.4221589,43.5288587 10.5512982,43.6353937 10.5512982,43.8734018 C10.5512982,44.1539042 10.3410668,44.2756015 9.89546527,44.2756015 C9.53521329,44.2756015 9.19665346,44.1539042 8.93330663,43.8520549 L8.38958361,44.3280711 C8.67502806,44.7408445 9.22341388,45 9.85208095,45 C10.8795188,45 11.3307967,44.5237843 11.3307967,43.8203338 C11.3307967,43.0157348 10.6692873,42.8150339 10.0724489,42.6779748 L10.0724489,42.6779748 Z M26.4027908,23.1627084 C26.1001142,23.1627084 25.8511612,23.4076991 25.8469039,23.7081519 L25.6196431,34.8875492 L25.8473094,38.9450584 C25.8511612,39.2411221 26.1001142,39.4859133 26.4027908,39.4859133 C26.7046564,39.4859133 26.9534066,39.2411221 26.9578667,38.9406693 L26.9578667,38.9454574 L27.2047923,34.8875492 L26.9578667,23.7073539 C26.9534066,23.4076991 26.7046564,23.1627084 26.4027908,23.1627084 L26.4027908,23.1627084 Z M41.9570805,29.5959093 C41.2661752,29.5959093 40.6068958,29.7337665 40.006611,29.9811512 C39.605002,25.5084746 35.7940753,22 31.145061,22 C30.0075406,22 28.8988078,22.2202522 27.9192144,22.5933244 C27.5382839,22.7381642 27.4373242,22.8873931 27.433675,23.1766737 L27.433675,38.927502 C27.4377296,39.2313464 27.6769515,39.4843173 27.978209,39.5138438 C27.9911837,39.5154399 41.8672709,39.522223 41.9570805,39.522223 C44.7421912,39.522223 47,37.2999497 47,34.5587669 C47,31.8177836 44.7421912,29.5959093 41.9570805,29.5959093 L41.9570805,29.5959093 Z M19.9470429,39.0958833 L19.9470429,39.0938882 L20.237961,34.8843572 L19.9470429,25.7103725 C19.94015,25.4821401 19.7576926,25.3037836 19.5318509,25.3037836 C19.305401,25.3037836 19.1229436,25.4821401 19.1162535,25.7103725 L18.857975,34.8843572 L19.116659,39.0954843 C19.1229436,39.3207241 19.305401,39.4990805 19.5318509,39.4990805 C19.7576926,39.4990805 19.9391364,39.3207241 19.9470429,39.0942873 L19.9470429,39.0958833 Z M16.1655121,39.4994796 C16.3497941,39.4994796 16.5018419,39.3518467 16.510762,39.1629166 L16.8493218,34.8829606 L16.510762,26.6915324 C16.5018419,26.5026022 16.3497941,26.3547699 16.1655121,26.3547699 C15.9794056,26.3547699 15.8279659,26.5026022 15.819654,26.6915324 C15.819654,26.6919314 15.5198157,34.8829606 15.5198157,34.8829606 L15.8202622,39.1645126 C15.8279659,39.3518467 15.9794056,39.4994796 16.1655121,39.4994796 L16.1655121,39.4994796 Z M22.9517106,25.7963586 C22.6845119,25.7963586 22.4710367,26.0052391 22.4657658,26.2719758 L22.2490469,34.8855542 L22.4657658,39.030047 C22.4710367,39.2941901 22.6845119,39.5026716 22.9517106,39.5026716 C23.2178957,39.5026716 23.4305599,39.2941901 23.4364391,39.027254 L23.4364391,39.030845 L23.6797156,34.8859532 L23.4364391,26.2713773 C23.4305599,26.0052391 23.2178957,25.7963586 22.9517106,25.7963586 L22.9517106,25.7963586 Z M9.59035596,39.2197752 C9.6971949,39.2197752 9.78315261,39.1367816 9.79572189,39.0222664 L10.2303759,34.8793696 L9.79612735,30.5798623 C9.78315261,30.4651475 9.6971949,30.3821539 9.59035596,30.3821539 C9.48230064,30.3821539 9.39553202,30.4655466 9.38499004,30.5798623 C9.38499004,30.5802613 9.00223498,34.8793696 9.00223498,34.8793696 L9.38499004,39.0210693 C9.39553202,39.1367816 9.48230064,39.2197752 9.59035596,39.2197752 L9.59035596,39.2197752 Z M12.8514777,39.4557882 C12.9976463,39.4557882 13.1156355,39.340874 13.1267856,39.1894506 L13.513798,34.8801676 L13.1267856,30.7811616 C13.1160409,30.6299377 12.9980518,30.5154225 12.8514777,30.5154225 C12.7034845,30.5154225 12.5854954,30.6303367 12.5761698,30.7827577 L12.2349745,34.8801676 L12.5761698,39.1890516 C12.5854954,39.340874 12.7034845,39.4557882 12.8514777,39.4557882 L12.8514777,39.4557882 Z M21.2353948,39.494891 C21.4806986,39.494891 21.6787662,39.3007737 21.6852536,39.053788 L21.6852536,39.0567805 L21.9528578,34.8851552 L21.6852536,25.944989 C21.6787662,25.6976042 21.4806986,25.504285 21.2353948,25.504285 C20.9880636,25.504285 20.789996,25.6980032 20.7845223,25.944989 L20.5467195,34.8851552 L20.7849277,39.055783 C20.789996,39.3007737 20.9880636,39.494891 21.2353948,39.494891 L21.2353948,39.494891 Z M24.6810012,39.5112503 C24.9627965,39.5112503 25.1959365,39.2820204 25.2010048,39.001119 L25.2010048,39.004311 L25.2010048,39.001119 L25.4205618,34.8867512 L25.2010048,24.6360443 C25.196342,24.3551429 24.9627965,24.126312 24.6810012,24.126312 C24.3981922,24.126312 24.1648495,24.3551429 24.1607949,24.6366428 L23.9645518,34.8833596 C23.9645518,34.8899433 24.1607949,39.003912 24.1607949,39.003912 C24.1648495,39.2820204 24.3981922,39.5112503 24.6810012,39.5112503 L24.6810012,39.5112503 Z M17.8420928,39.4909009 C18.0470532,39.4909009 18.2136977,39.3281058 18.2224151,39.1196242 L18.5372554,34.8835591 L18.2224151,26.0086307 C18.2141031,25.8001492 18.0470532,25.6373541 17.8420928,25.6373541 C17.6355105,25.6373541 17.4686633,25.8005482 17.4615677,26.0090297 C17.4615677,26.0094287 17.1824079,34.8835591 17.1824079,34.8835591 L17.4615677,39.1212203 C17.4686633,39.3277067 17.6355105,39.4909009 17.8420928,39.4909009 L17.8420928,39.4909009 Z M11.2144295,30.2299325 C11.0875202,30.2299325 10.9837222,30.3298839 10.9737884,30.462953 L10.6121173,34.8801676 L10.9737884,39.1535399 C10.9837222,39.2856114 11.0875202,39.3857624 11.2144295,39.3857624 C11.3403251,39.3857624 11.4435149,39.2856114 11.454665,39.1535399 L11.8655996,34.8801676 L11.454665,30.462155 C11.4435149,30.3298839 11.3403251,30.2299325 11.2144295,30.2299325 L11.2144295,30.2299325 Z M14.5017034,27.9128949 C14.3360727,27.9128949 14.1998378,28.045964 14.1915259,28.2153427 L13.8708063,34.8821626 L14.1915259,39.1904481 C14.1998378,39.3584303 14.3360727,39.4916989 14.5017034,39.4916989 C14.6661178,39.4916989 14.8021499,39.3584303 14.8120837,39.1894506 L14.8120837,39.1904481 L15.1749712,34.8821626 L14.8120837,28.2153427 C14.8021499,28.045964 14.6661178,27.9128949 14.5017034,27.9128949 L14.5017034,27.9128949 Z M8.1503617,31.2553823 C8.13617057,31.1592214 8.06602584,31.0925871 7.97986541,31.0925871 C7.89289405,31.0925871 7.82112748,31.1612165 7.80936911,31.2553823 C7.80936911,31.2561803 7.40634101,34.8785716 7.40634101,34.8785716 L7.80936911,38.4221588 C7.82112748,38.5167236 7.89289405,38.585752 7.97986541,38.585752 C8.06602584,38.585752 8.13617057,38.5187187 8.14995624,38.4229568 L8.60853248,34.8785716 L8.1503617,31.2553823 Z M6.46425269,32.4799369 C6.37849772,32.4799369 6.31078575,32.5451746 6.29963558,32.6379439 L6,34.8785716 L6.29963558,37.0812935 C6.31078575,37.1740628 6.37849772,37.238702 6.46425269,37.238702 C6.54696671,37.238702 6.61447594,37.1748608 6.62765342,37.0820915 L6.62765342,37.0816925 L6.62765342,37.0820915 L6.98303987,34.8785716 L6.62765342,32.6371459 C6.6148814,32.5447756 6.54696671,32.4799369 6.46425269,32.4799369 L6.46425269,32.4799369 Z" id="Fill-1"></path>
                </g>
            </g>
        </g>
    </g>
</svg>