<?xml version="1.0" encoding="UTF-8" standalone="no"?>
<svg width="32px" height="27px" viewBox="0 0 32 27" version="1.1" xmlns="http://www.w3.org/2000/svg" xmlns:xlink="http://www.w3.org/1999/xlink">
    <!-- Generator: Sketch 43.2 (39069) - http://www.bohemiancoding.com/sketch -->
    <title>Twitter_icon</title>
    <desc>Created with Sketch.</desc>
    <defs></defs>
    <g id="Page-1" stroke="none" stroke-width="1" fill="none" fill-rule="evenodd">
        <g id="Desktop_Remixmonsta" transform="translate(-1045.000000, -17.000000)" fill="#E0E0E0">
            <g id="Header" transform="translate(-1.000000, 0.000000)">
                <path d="M1056.06336,43.4 C1068.13888,43.4 1074.74368,33.2422453 1074.74368,24.4334863 C1074.74368,24.1449727 1074.74368,23.8577589 1074.72448,23.5718446 C1076.00934,22.6281975 1077.11846,21.4598478 1078,20.121379 C1076.80179,20.6604574 1075.53075,21.0140814 1074.22912,21.1701646 C1075.59962,20.3371144 1076.62554,19.0268472 1077.11552,17.48317 C1075.82669,18.2596872 1074.41677,18.8068232 1072.94643,19.1011849 C1070.46029,16.4168397 1066.30118,16.2872685 1063.65734,18.8117617 C1061.95226,20.4397836 1061.2288,22.8658962 1061.75808,25.1807622 C1056.47923,24.9121328 1051.56096,22.3804917 1048.2272,18.2161502 C1046.48461,21.2620471 1047.37472,25.1585389 1050.25984,27.1145824 C1049.21498,27.0831319 1048.19302,26.7969577 1047.28,26.2802326 L1047.28,26.3647073 C1047.2809,29.5378359 1049.48378,32.2707866 1052.5472,32.8991482 C1051.58067,33.1668679 1050.56653,33.2059862 1049.58272,33.0135139 C1050.44275,35.7290498 1052.90765,37.5891821 1055.71648,37.6427261 C1053.39162,39.4979199 1050.51968,40.5049879 1047.56288,40.5018689 C1047.04051,40.5008292 1046.51866,40.4687288 1046,40.4056977 C1049.00237,42.3620012 1052.49587,43.3996101 1056.06336,43.3948016" id="Twitter_icon"></path>
            </g>
        </g>
    </g>
</svg>