<?xml version="1.0" encoding="UTF-8" standalone="no"?>
<svg width="24px" height="24px" viewBox="0 0 24 24" version="1.1" xmlns="http://www.w3.org/2000/svg" xmlns:xlink="http://www.w3.org/1999/xlink">
    <!-- Generator: Sketch 43.2 (39069) - http://www.bohemiancoding.com/sketch -->
    <title>Fill 1</title>
    <desc>Created with Sketch.</desc>
    <defs></defs>
    <g id="Page-1" stroke="none" stroke-width="1" fill="none" fill-rule="evenodd">
        <g id="Desktop_Remixmonsta" transform="translate(-1033.000000, -930.000000)" fill="#FFFFFF">
            <g id="Music_Player" transform="translate(-1.000000, 901.000000)">
                <g id="Volume_icon" transform="translate(1034.000000, 29.000000)">
                    <path d="M14.6666667,2.74666667 C18.5213333,3.89333333 21.3333333,7.46666667 21.3333333,11.6933333 C21.3333333,15.92 18.5213333,19.4933333 14.6666667,20.64 L14.6666667,23.3866667 C20.0133333,22.172 24,17.4 24,11.6933333 C24,5.98666667 20.0133333,1.21333333 14.6666667,0 L14.6666667,2.74666667 Z M14.6666667,6.32 L14.6666667,17.0533333 C16.64,16.08 18,14.0533333 18,11.6933333 C18,9.33333333 16.64,7.30666667 14.6666667,6.32 Z M1.00315921,7.69333333 C0.449129675,7.69333333 0,8.14636964 0,8.69036347 L0,14.6963032 C0,15.2469477 0.454717,15.6933333 1.00315921,15.6933333 L5.33333333,15.6933333 L11.2865499,21.6465499 C11.6805775,22.0405775 12,21.914423 12,21.3596627 L12,2.02700395 C12,1.47453292 11.6784528,1.34821386 11.2865499,1.74011678 L5.33333333,7.69333333 L1.00315921,7.69333333 Z" id="Fill-1"></path>
                </g>
            </g>
        </g>
    </g>
</svg>